<?xml version="1.0" standalone="no"?><!DOCTYPE svg PUBLIC "-//W3C//DTD SVG 1.1//EN" "http://www.w3.org/Graphics/SVG/1.1/DTD/svg11.dtd"><svg t="1523424951964" class="icon" style="" viewBox="0 0 1024 1024" version="1.1" xmlns="http://www.w3.org/2000/svg" p-id="2199" xmlns:xlink="http://www.w3.org/1999/xlink" width="48" height="48"><defs><style type="text/css"></style></defs><path d="M530.062513 483.493742h76.765681v65.47661h-76.765681zM530.062513 605.419318h76.765681v65.476611h-76.765681z" p-id="2200" fill="#59adff"></path><path d="M773.906442 33.343399h-523.812884c-119.700275 0-216.750159 97.086009-216.750159 216.750159v523.812884c0 119.66415 97.049884 216.750159 216.750159 216.750159h523.812884c119.700275 0 216.750159-97.086009 216.750159-216.750159v-523.812884c0-119.66415-97.049884-216.750159-216.750159-216.750159z m-27.09377 393.704989c16.545262 1.481126 25.576519 11.289071 27.09377 29.351584-1.517251 16.581387-11.289071 25.612644-29.351584 27.09377H665.531362v65.47661h76.765682c18.062513 1.481126 27.834333 10.512383 29.351584 27.09377-1.517251 18.062513-11.289071 27.870458-29.351584 29.351584h-76.765682v65.47661h81.28131c19.543639 1.481126 29.351584 10.512383 29.351584 27.09377-1.517251 18.062513-12.065759 27.870458-31.609398 29.351584H530.062513v6.773443c-1.517251 16.581387-12.065759 24.835956-31.609398 24.835955-18.062513-1.481126-27.870458-10.512383-29.351584-27.093769v-291.258026c-13.546885 27.09377-27.870458 36.125026-42.898469 27.09377-4.515628 28.574896-9.807945 53.414464-15.804699 74.507867 31.609398 79.800183 46.637409 127.214281 45.156283 142.242291-1.517251 15.028011-12.065759 24.059268-31.609398 27.09377-15.064136-1.481126-25.612644-11.289071-31.609398-29.351584-1.517251-5.996754-4.515628-15.804699-9.031257-29.351584-4.515628-16.581387-7.550131-24.835956-9.031256-24.835956-24.095393 48.190785-48.190785 83.539124-72.250053 106.117266-16.581387 16.581387-32.386086 18.839201-47.414098 6.773442-12.065759-13.546885-11.289071-30.128272 2.257815-49.671911 28.574896-34.6439 56.445354-81.28131 83.539123-139.984478a9744.436887 9744.436887 0 0 0-67.734424-128.695407c-6.032879-9.031257-9.807945-15.804699-11.289071-20.320327-10.548508-19.543639-9.031257-35.348338 4.515628-47.414097 16.545262-9.031257 31.609398-5.292316 45.156283 11.289071 15.028011 22.578142 33.090524 52.706414 54.18754 90.312566 1.481126 1.481126 2.257814 3.034502 2.257814 4.515628 12.029634-48.190785 18.062513-97.086009 18.062513-146.75792 0-4.515628-2.257814-6.773442-6.773442-6.773442H277.187328c-15.064136-1.481126-22.578142-11.289071-22.578142-29.351584 1.481126-16.581387 9.77182-25.612644 24.835956-27.09377h133.211035c24.059268 1.481126 35.348338 17.285825 33.867213 47.414097 0 18.062513-1.517251 42.121781-4.515629 72.250053 19.543639-30.128272 35.348338-60.960982 47.414097-92.57038 1.481126-3.034502 2.998377-6.773442 4.515629-11.289071 2.998377-9.031257 9.031257-21.801453 18.062513-38.382841 13.546885-15.028011 28.578508-15.804699 45.156283-2.257814 9.031257 12.065759 7.514006 30.83271-4.515628 56.445354-4.515628 9.031257-7.550131 15.804699-9.031257 20.320327h85.796938c-3.034502-4.515628-8.290694-10.512383-15.804699-18.062513-10.548508-10.512383-17.32195-19.543639-20.320327-27.09377-6.032879-21.097015 2.257814-34.6439 24.835955-40.640655 13.546885 0 24.059268 5.292316 31.609398 15.8047 34.607775 36.125026 42.121781 59.479856 22.578142 69.992238h76.765681c18.062513 1.481126 27.834333 11.289071 29.351584 29.351584-1.517251 18.062513-10.548508 27.870458-27.09377 29.351584h-85.796938v65.476611h81.28131z" p-id="2201" fill="#59adff"></path><path d="M530.062513 361.571777h76.765681v65.476611h-76.765681z" p-id="2202" fill="#59adff"></path></svg>