<?xml version="1.0" standalone="no"?><!DOCTYPE svg PUBLIC "-//W3C//DTD SVG 1.1//EN" "http://www.w3.org/Graphics/SVG/1.1/DTD/svg11.dtd"><svg t="1522637430543" class="icon" style="" viewBox="0 0 1025 1024" version="1.1" xmlns="http://www.w3.org/2000/svg" p-id="1989" xmlns:xlink="http://www.w3.org/1999/xlink" width="48.046875" height="48"><defs><style type="text/css"></style></defs><path d="M840.655667 192.118581c30.637211 0 55.523164 24.938145 55.523164 55.562052L896.178831 638.93085c0 30.561482-24.88493 55.373755-55.523164 55.373755l-136.680355 0c-35.389673 0-64.0252 28.626317-64.0252 63.938215 0 0 0 5.937507 0 15.249017-39.891412-32.374868-79.782825-64.811137-79.782825-64.811137-11.379711-9.313556-25.63505-14.376095-40.391833-14.376095l-336.448517 0c-30.574786 0-55.459716-24.812272-55.459716-55.373755L127.86722 247.680633c0-30.62493 24.88493-55.562052 55.459716-55.562052L840.655667 192.118581M840.655667 128.117942l-657.327708 0c-65.964458 0-119.48594 53.562416-119.48594 119.561668L63.84202 638.93085c0 65.874403 53.521481 119.374394 119.48594 119.374394l336.448517 0c0 0 139.181436 113.249613 158.064387 128.000256 8.87863 6.874901 15.256181 9.81193 19.508222 9.81193 4.752462 0 6.877971-3.750597 6.753122-9.81193-0.188297-11.375617-0.124849-128.000256-0.124849-128.000256l136.680355 0c66.089308 0 119.548365-53.499991 119.548365-119.374394L960.206078 247.680633C960.204031 181.680357 906.744975 128.117942 840.655667 128.117942L840.655667 128.117942z" p-id="1990" fill="#59adff"></path><path d="M752.120084 448.11807c0 26.56221-21.571306 47.999456-48.019923 47.999456-26.510019 0-48.019923-21.437247-48.019923-47.999456 0-26.563233 21.509905-47.999456 48.019923-47.999456C730.548778 400.118613 752.120084 421.55586 752.120084 448.11807z" p-id="1991" fill="#59adff"></path><path d="M560.042437 448.11807c0 26.56221-21.571306 47.999456-48.0189 47.999456-26.542766 0-48.019923-21.437247-48.019923-47.999456 0-26.563233 21.477157-47.999456 48.019923-47.999456C538.470108 400.118613 560.042437 421.55586 560.042437 448.11807z" p-id="1992" fill="#59adff"></path><path d="M367.96479 448.11807c0 26.56221-21.571306 47.999456-48.019923 47.999456-26.541743 0-48.0189-21.437247-48.0189-47.999456 0-26.563233 21.477157-47.999456 48.0189-47.999456C346.393484 400.118613 367.96479 421.55586 367.96479 448.11807z" p-id="1993" fill="#59adff"></path></svg>