<?xml version="1.0" standalone="no"?><!DOCTYPE svg PUBLIC "-//W3C//DTD SVG 1.1//EN" "http://www.w3.org/Graphics/SVG/1.1/DTD/svg11.dtd"><svg t="1521724767960" class="icon" style="" viewBox="0 0 1127 1024" version="1.1" xmlns="http://www.w3.org/2000/svg" p-id="1760" xmlns:xlink="http://www.w3.org/1999/xlink" width="52.828125" height="48"><defs><style type="text/css"></style></defs><path d="M1102.08 537.267H24.32c-13.44 0-24.32-10.905-24.32-24.32v-1.894c0-13.44 10.88-24.32 24.32-24.32h1077.76c13.44 0 24.32 10.88 24.32 24.32v1.894c0 13.415-10.88 24.32-24.32 24.32z m-52.66-178.483c-14.156 0-25.65-11.469-25.65-25.626V51.2H742.682c-14.132 0-25.575-11.469-25.575-25.6 0-14.131 11.443-25.6 25.575-25.6h306.841c14.106 0 25.549 11.469 25.549 25.6 0 0.026 0.026 0.026 0.026 0.026v307.532c0 14.157-11.495 25.626-25.677 25.626zM383.719 51.302H102.4v282.65c0 13.517-10.931 24.448-24.448 24.448h-2.304c-13.517 0-24.448-10.931-24.448-24.448V24.448C51.2 10.931 62.131 0 75.648 0h308.07c14.132 0 25.575 11.494 25.575 25.651 0 14.183-11.443 25.651-25.575 25.651zM75.648 665.6h2.304c13.517 0 24.448 10.931 24.448 24.448v282.65h281.318c14.132 0 25.575 11.468 25.575 25.65 0 14.158-11.443 25.652-25.575 25.652H75.648c-13.517 0-24.448-10.931-24.448-24.448V690.048c0-13.517 10.931-24.448 24.448-24.448z m667.034 307.2h281.088V690.842c0-14.157 11.494-25.626 25.65-25.626 14.183 0 25.678 11.469 25.678 25.626v307.532s-0.026 0-0.026 0.026c0 14.131-11.443 25.6-25.549 25.6H742.682c-14.132 0-25.575-11.469-25.575-25.6 0-14.131 11.443-25.6 25.575-25.6z" fill="#ffffff" p-id="1761"></path></svg>